<?xml version="1.0" encoding="utf-8"?>
<!-- Generator: Adobe Illustrator 16.0.0, SVG Export Plug-In . SVG Version: 6.00 Build 0)  -->
<!DOCTYPE svg PUBLIC "-//W3C//DTD SVG 1.1//EN" "http://www.w3.org/Graphics/SVG/1.1/DTD/svg11.dtd">
<svg version="1.1" id="Layer_2" xmlns="http://www.w3.org/2000/svg" xmlns:xlink="http://www.w3.org/1999/xlink" x="0px" y="0px"
	 width="430px" height="56px" viewBox="0 0 430 56" enable-background="new 0 0 430 56" xml:space="preserve">
<path fill="#FFFFFF" d="M33.397,30.851c-0.741-0.692-1.602-1.272-2.584-1.74c-0.983-0.466-2.022-0.797-3.117-0.99
	c0.871-0.226,1.683-0.572,2.44-1.04c0.757-0.467,1.417-1.039,1.981-1.715c0.562-0.676,1.006-1.449,1.328-2.319
	c0.322-0.871,0.483-1.853,0.483-2.948v-0.098c0-2.19-0.725-4.01-2.174-5.46c-0.936-0.934-2.159-1.659-3.672-2.174
	c-1.515-0.515-3.237-0.773-5.17-0.773H9V45.42h14.639c3.8,0,6.771-0.78,8.913-2.344c2.142-1.562,3.214-3.76,3.214-6.596v-0.097
	c0-1.16-0.21-2.199-0.629-3.116C34.718,32.35,34.139,31.544,33.397,30.851z M10.644,13.093h12.223c2.995,0,5.313,0.644,6.957,1.933
	c1.643,1.289,2.464,2.996,2.464,5.122v0.097c0,1.225-0.234,2.295-0.7,3.214c-0.468,0.918-1.111,1.683-1.934,2.294
	c-0.821,0.613-1.779,1.072-2.874,1.377c-1.096,0.307-2.271,0.459-3.526,0.459H10.644V13.093z M34.074,36.528
	c0,2.32-0.91,4.132-2.729,5.437c-1.82,1.305-4.372,1.957-7.658,1.957H10.644V29.087H23.88c1.481,0,2.852,0.162,4.106,0.483
	c1.256,0.323,2.336,0.798,3.237,1.426c0.901,0.628,1.602,1.394,2.102,2.295c0.5,0.903,0.749,1.95,0.749,3.141V36.528z
	 M48.278,22.951c-0.87,0.741-1.627,1.595-2.271,2.561s-1.143,1.965-1.497,2.996v-7.441h-1.546V45.42h1.546V33.871
	c0-1.481,0.249-2.931,0.748-4.349c0.499-1.417,1.192-2.665,2.078-3.745c0.886-1.079,1.948-1.948,3.188-2.609
	c1.24-0.66,2.601-0.991,4.082-0.991h0.242v-1.595c-1.289-0.031-2.489,0.169-3.6,0.605C50.139,21.622,49.147,22.209,48.278,22.951z
	 M60.211,45.42h1.642V21.066h-1.642V45.42z M59.969,14.35h2.126v-2.949h-2.126V14.35z M84.326,34.523
	c-0.771-0.514-1.67-0.949-2.698-1.302c-1.027-0.354-2.087-0.675-3.179-0.965c-0.996-0.29-1.935-0.579-2.818-0.869
	c-0.882-0.289-1.661-0.635-2.335-1.036c-0.676-0.402-1.213-0.869-1.613-1.399C71.28,28.423,71.08,27.771,71.08,27v-0.097
	c0-1.35,0.6-2.482,1.8-3.399c1.199-0.917,2.808-1.375,4.823-1.375c1.279,0,2.591,0.217,3.934,0.653
	c1.344,0.435,2.593,1.07,3.744,1.908l0.87-1.305c-1.287-0.871-2.677-1.548-4.17-2.03c-1.493-0.483-2.946-0.725-4.358-0.725
	c-1.253,0-2.385,0.161-3.396,0.483s-1.879,0.771-2.601,1.35c-0.724,0.579-1.285,1.254-1.686,2.026
	c-0.402,0.772-0.603,1.607-0.603,2.507v0.097c0,1.029,0.225,1.888,0.675,2.58c0.449,0.691,1.06,1.278,1.83,1.76
	c0.77,0.483,1.67,0.901,2.697,1.254c1.027,0.353,2.104,0.69,3.227,1.013c0.932,0.257,1.838,0.53,2.722,0.82
	c0.882,0.289,1.67,0.635,2.359,1.036c0.69,0.402,1.245,0.893,1.662,1.471c0.417,0.579,0.626,1.302,0.626,2.17v0.098
	c0,0.739-0.177,1.422-0.53,2.05c-0.353,0.626-0.843,1.165-1.468,1.615c-0.626,0.449-1.365,0.795-2.217,1.036
	c-0.851,0.242-1.758,0.362-2.721,0.362c-1.573,0-3.139-0.29-4.696-0.871c-1.559-0.58-3.011-1.401-4.359-2.464l-0.918,1.208
	c1.354,1.129,2.907,2.014,4.662,2.659c1.756,0.644,3.503,0.966,5.242,0.966c1.224,0,2.359-0.161,3.406-0.482
	c1.047-0.323,1.957-0.771,2.73-1.351c0.772-0.579,1.384-1.278,1.835-2.098c0.45-0.82,0.676-1.729,0.676-2.725v-0.096
	c0-1.06-0.233-1.96-0.697-2.7C85.715,35.664,85.096,35.037,84.326,34.523z M96.782,12.899h-1.546v8.167h-3.72v1.401h3.72v16.72
	c0,2.223,0.587,3.889,1.764,5.001c1.175,1.111,2.745,1.667,4.71,1.667c1.416,0,2.688-0.274,3.816-0.822v-1.499
	c-1.256,0.549-2.48,0.822-3.672,0.822c-1.61,0-2.859-0.442-3.744-1.326c-0.887-0.883-1.328-2.226-1.328-4.026V22.467h8.841v-1.401
	h-8.841V12.899z M131.977,24.255c-1.11-1.16-2.432-2.079-3.961-2.754c-1.53-0.677-3.229-1.015-5.098-1.015s-3.583,0.346-5.145,1.04
	c-1.562,0.693-2.898,1.618-4.011,2.778c-1.11,1.159-1.973,2.513-2.584,4.06c-0.612,1.545-0.918,3.172-0.918,4.88v0.096
	c0,1.708,0.306,3.327,0.918,4.856c0.611,1.531,1.474,2.876,2.584,4.035c1.112,1.16,2.44,2.079,3.986,2.755
	c1.546,0.676,3.253,1.014,5.121,1.014c1.867,0,3.575-0.346,5.121-1.039c1.546-0.692,2.875-1.618,3.985-2.778
	c1.112-1.16,1.974-2.513,2.586-4.06c0.61-1.546,0.917-3.172,0.917-4.88v-0.097c0-1.708-0.307-3.326-0.917-4.856
	C133.95,26.76,133.089,25.414,131.977,24.255z M133.837,33.291c0,1.541-0.267,2.984-0.799,4.331
	c-0.533,1.347-1.284,2.534-2.251,3.56c-0.97,1.027-2.123,1.837-3.462,2.43c-1.34,0.594-2.817,0.89-4.431,0.89
	c-1.583,0-3.043-0.296-4.382-0.89c-1.341-0.593-2.502-1.403-3.486-2.43c-0.984-1.025-1.751-2.213-2.3-3.56
	c-0.55-1.347-0.823-2.791-0.823-4.331v-0.096c0-1.54,0.266-2.984,0.799-4.331c0.533-1.347,1.274-2.534,2.228-3.561
	c0.951-1.026,2.098-1.835,3.438-2.43c1.339-0.594,2.816-0.89,4.43-0.89c1.582,0,3.052,0.296,4.407,0.89
	c1.355,0.594,2.525,1.404,3.51,2.43c0.984,1.027,1.751,2.213,2.3,3.561c0.548,1.347,0.823,2.791,0.823,4.331V33.291z M142.532,45.42
	h1.643V10.145h-1.643V45.42z M169.394,31.6l-13.575-20.005h-2.368V45.42h2.416V16.041l13.382,19.474h0.193l13.383-19.474V45.42
	h2.512V11.595h-2.367L169.394,31.6z M194.419,14.35h2.947v-3.239h-2.947V14.35z M194.708,45.42h2.368V20.776h-2.368V45.42z
	 M224.444,23.047c-0.854-0.902-1.893-1.603-3.117-2.102c-1.223-0.5-2.608-0.75-4.155-0.75c-2.253,0-4.089,0.5-5.506,1.499
	c-1.418,0.999-2.545,2.223-3.382,3.672v-4.59h-2.367V45.42h2.367V31.165c0-1.288,0.218-2.471,0.651-3.551
	c0.436-1.079,1.04-2.005,1.812-2.779c0.773-0.773,1.674-1.376,2.706-1.812c1.029-0.435,2.157-0.652,3.38-0.652
	c2.514,0,4.445,0.765,5.798,2.295c1.354,1.53,2.03,3.568,2.03,6.113V45.42h2.368V30.344c0-1.481-0.218-2.843-0.652-4.084
	C225.942,25.021,225.298,23.949,224.444,23.047z M255.582,26.091c-0.517-0.772-1.104-1.513-1.765-2.223
	c-0.661-0.708-1.4-1.336-2.222-1.884c-0.822-0.547-1.748-0.983-2.777-1.305c-1.032-0.322-2.159-0.483-3.381-0.483
	c-1.483,0-2.941,0.298-4.373,0.894c-1.436,0.597-2.715,1.45-3.842,2.561c-1.128,1.112-2.038,2.465-2.729,4.06
	c-0.693,1.595-1.04,3.391-1.04,5.388v0.097c0,1.998,0.347,3.793,1.04,5.387c0.69,1.595,1.601,2.94,2.729,4.035
	c1.127,1.096,2.406,1.934,3.842,2.513c1.432,0.58,2.89,0.87,4.373,0.87c1.222,0,2.342-0.169,3.356-0.507
	c1.014-0.338,1.932-0.78,2.754-1.329c0.821-0.548,1.561-1.191,2.222-1.933c0.659-0.74,1.264-1.514,1.812-2.319v5.509h2.367V10.145
	h-2.367V26.091z M255.727,33.146c0,1.579-0.283,3.012-0.848,4.3c-0.565,1.289-1.317,2.401-2.251,3.335
	c-0.938,0.934-2.012,1.659-3.223,2.174c-1.21,0.516-2.462,0.773-3.754,0.773c-1.29,0-2.525-0.25-3.702-0.749
	c-1.18-0.5-2.214-1.208-3.103-2.126c-0.887-0.918-1.59-2.037-2.105-3.358c-0.517-1.321-0.775-2.787-0.775-4.397v-0.097
	c0-1.643,0.25-3.116,0.75-4.421c0.502-1.305,1.188-2.408,2.059-3.31c0.871-0.902,1.897-1.595,3.078-2.078
	c1.176-0.483,2.444-0.725,3.799-0.725c1.292,0,2.544,0.259,3.754,0.773c1.211,0.516,2.285,1.233,3.223,2.151
	c0.934,0.918,1.686,2.029,2.251,3.334c0.564,1.305,0.848,2.747,0.848,4.325V33.146z M275.243,10c-2.158,0-3.882,0.645-5.168,1.933
	c-1.451,1.449-2.176,3.593-2.176,6.427v2.417h-3.575v2.175h3.575V45.42h2.368V22.951h8.599v-2.175h-8.599v-2.368
	c0-4.156,1.657-6.233,4.976-6.233c0.645,0,1.24,0.048,1.788,0.145s1.175,0.259,1.884,0.483V10.58
	c-0.548-0.193-1.109-0.338-1.689-0.436C276.645,10.048,275.984,10,275.243,10z M301.72,35.031c0,1.289-0.219,2.473-0.653,3.551
	c-0.435,1.08-1.039,2.006-1.811,2.779c-0.773,0.773-1.685,1.377-2.73,1.813c-1.046,0.434-2.166,0.651-3.357,0.651
	c-2.513,0-4.445-0.765-5.798-2.295c-1.354-1.529-2.03-3.567-2.03-6.112V20.776h-2.366v15.077c0,1.482,0.218,2.843,0.652,4.083
	c0.436,1.241,1.08,2.312,1.932,3.214c0.854,0.902,1.893,1.604,3.118,2.102c1.222,0.5,2.608,0.75,4.154,0.75
	c2.255,0,4.09-0.5,5.508-1.498c1.415-0.998,2.543-2.223,3.382-3.672v4.59h2.366V20.776h-2.366V35.031z M312.928,45.42h2.367V10.145
	h-2.367V45.42z M342.664,23.047c-0.855-0.902-1.893-1.603-3.117-2.102s-2.609-0.75-4.154-0.75c-2.256,0-4.09,0.5-5.508,1.499
	s-2.545,2.223-3.383,3.672v-4.59h-2.367V45.42h2.367V31.165c0-1.288,0.219-2.471,0.654-3.551c0.436-1.079,1.039-2.005,1.811-2.779
	c0.773-0.773,1.676-1.376,2.707-1.812c1.027-0.435,2.156-0.652,3.381-0.652c2.512,0,4.443,0.765,5.797,2.295
	c1.354,1.53,2.027,3.568,2.027,6.113V45.42h2.369V30.344c0-1.481-0.217-2.843-0.652-4.084
	C344.162,25.021,343.516,23.949,342.664,23.047z M371.504,23.917c-0.982-1.16-2.166-2.069-3.551-2.73s-2.947-0.991-4.684-0.991
	c-1.678,0-3.223,0.338-4.641,1.015s-2.648,1.595-3.695,2.755c-1.047,1.159-1.867,2.521-2.463,4.083
	c-0.598,1.563-0.895,3.23-0.895,5.001v0.097c0,1.933,0.322,3.689,0.969,5.267c0.646,1.579,1.523,2.932,2.639,4.06
	c1.113,1.127,2.404,1.998,3.873,2.609c1.471,0.612,3.012,0.918,4.627,0.918c2.355,0,4.33-0.443,5.93-1.329
	c1.6-0.885,3.025-2.004,4.283-3.358l-1.643-1.449c-1.033,1.095-2.221,2.013-3.562,2.754c-1.338,0.742-2.979,1.112-4.914,1.112
	c-1.229,0-2.4-0.216-3.514-0.649s-2.107-1.066-2.98-1.899c-0.869-0.833-1.596-1.843-2.178-3.029
	c-0.582-1.185-0.922-2.548-1.018-4.086h20.438c0.031-0.194,0.047-0.346,0.047-0.459v-0.508c0-1.836-0.266-3.535-0.797-5.098
	C373.244,26.438,372.486,25.076,371.504,23.917z M354.088,31.938c0.096-1.353,0.404-2.617,0.92-3.794
	c0.518-1.175,1.172-2.19,1.963-3.043c0.789-0.854,1.719-1.522,2.785-2.006c1.064-0.483,2.211-0.725,3.439-0.725
	c1.42,0,2.664,0.266,3.73,0.797c1.064,0.531,1.961,1.241,2.688,2.126c0.727,0.886,1.293,1.901,1.697,3.044
	c0.4,1.144,0.65,2.343,0.748,3.6H354.088z M394.912,33.969c-0.775-0.53-1.645-0.965-2.609-1.302c-0.967-0.336-1.949-0.65-2.947-0.94
	c-0.869-0.257-1.723-0.522-2.561-0.795c-0.838-0.273-1.568-0.587-2.197-0.941c-0.629-0.353-1.137-0.78-1.521-1.278
	c-0.389-0.499-0.582-1.084-0.582-1.76v-0.096c0-1.223,0.508-2.243,1.523-3.063c1.014-0.819,2.373-1.229,4.082-1.229
	c1.322,0,2.633,0.226,3.938,0.676c1.303,0.452,2.52,1.048,3.648,1.789l1.254-1.981c-1.223-0.849-2.615-1.52-4.178-2.014
	c-1.562-0.495-3.084-0.742-4.564-0.742c-1.193,0-2.287,0.169-3.285,0.508c-1,0.337-1.854,0.811-2.562,1.421
	c-0.707,0.612-1.264,1.326-1.664,2.146c-0.404,0.82-0.605,1.728-0.605,2.724v0.096c0,1.094,0.25,2.011,0.75,2.75
	c0.498,0.739,1.15,1.357,1.955,1.856s1.717,0.907,2.73,1.229c1.014,0.323,2.02,0.628,3.02,0.917
	c0.871,0.258,1.689,0.515,2.463,0.771c0.773,0.257,1.465,0.579,2.078,0.964c0.609,0.387,1.094,0.836,1.449,1.351
	c0.354,0.515,0.531,1.125,0.531,1.833v0.097c0,1.446-0.572,2.588-1.717,3.424c-1.143,0.836-2.553,1.253-4.225,1.253
	c-1.58,0-3.111-0.282-4.59-0.846c-1.482-0.562-2.898-1.359-4.252-2.392l-1.402,1.885c1.322,1.068,2.885,1.938,4.688,2.613
	c1.805,0.673,3.607,1.012,5.41,1.012c1.191,0,2.303-0.169,3.334-0.507c1.029-0.337,1.932-0.819,2.705-1.446
	c0.773-0.627,1.379-1.382,1.812-2.267c0.434-0.884,0.652-1.872,0.652-2.966v-0.096c0-1.093-0.234-2.008-0.701-2.748
	C396.307,35.134,395.686,34.499,394.912,33.969z M420.299,35.874c-0.467-0.74-1.086-1.375-1.859-1.905
	c-0.771-0.53-1.643-0.965-2.607-1.302c-0.967-0.336-1.949-0.65-2.947-0.94c-0.871-0.257-1.725-0.522-2.562-0.795
	c-0.838-0.273-1.57-0.587-2.197-0.941c-0.629-0.353-1.135-0.78-1.521-1.278c-0.387-0.499-0.58-1.084-0.58-1.76v-0.096
	c0-1.223,0.508-2.243,1.521-3.063c1.014-0.819,2.375-1.229,4.082-1.229c1.322,0,2.635,0.226,3.938,0.676
	c1.305,0.452,2.521,1.048,3.648,1.789l1.256-1.981c-1.225-0.849-2.615-1.52-4.178-2.014c-1.562-0.495-3.084-0.742-4.568-0.742
	c-1.189,0-2.285,0.169-3.285,0.508c-0.998,0.337-1.85,0.811-2.559,1.421c-0.709,0.612-1.266,1.326-1.668,2.146
	c-0.4,0.82-0.602,1.728-0.602,2.724v0.096c0,1.094,0.248,2.011,0.746,2.75c0.5,0.739,1.152,1.357,1.959,1.856
	c0.805,0.499,1.713,0.907,2.729,1.229c1.014,0.323,2.021,0.628,3.02,0.917c0.871,0.258,1.691,0.515,2.465,0.771
	c0.771,0.257,1.465,0.579,2.076,0.964c0.611,0.387,1.096,0.836,1.451,1.351c0.352,0.515,0.529,1.125,0.529,1.833v0.097
	c0,1.446-0.57,2.588-1.715,3.424c-1.143,0.836-2.551,1.253-4.227,1.253c-1.578,0-3.109-0.282-4.592-0.846
	c-1.479-0.562-2.896-1.359-4.248-2.392l-1.402,1.885c1.32,1.068,2.883,1.938,4.686,2.613c1.803,0.673,3.607,1.012,5.41,1.012
	c1.193,0,2.305-0.169,3.336-0.507c1.029-0.337,1.932-0.819,2.703-1.446c0.773-0.627,1.379-1.382,1.812-2.267
	C420.783,40.8,421,39.812,421,38.718v-0.096C421,37.529,420.768,36.613,420.299,35.874z"/>
</svg>
